/* XPM */
static char *_d4ff86974934796954eb8d09171ff71sXcPTkQMxbNRfrSG[] = {
/* columns rows colors chars-per-pixel */
"38 30 10 1 ",
"  c None",
". c #131313",
"X c #272727",
"o c gray24",
"O c #5D5D5D",
"+ c #B4202A",
"@ c #BB7547",
"# c #DBA463",
"$ c #B4B4B4",
"% c white",
/* pixels */
"                                      ",
"                                      ",
"                                      ",
"                                      ",
"                ...   ...             ",
"               .oo.   .oo.            ",
"              .oo.     .oo.           ",
"              .oo.     .oo.           ",
"              .ooo.....ooo.           ",
"             .Xoooooooooo.            ",
"       XXX   .Xoo..ooooo..            ",
"      X%%%X  .Xoo.........            ",
"     X%$$$%X .Xoo..+....+.            ",
"    X%$$$$$%X.Xoo..++..++.            ",
"    X%$$$$$%X.Xoo...+..+..            ",
"     XO$$$OX .Xoo.........            ",
"      XOOOXOX.XXoo.........XXXX       ",
"     XO$$$O###..Xoooooooo.O.###X      ",
"     XO$$$O@@.oo.........OO.@@@X      ",
"      XOOOXOX.oooXooOOOooo.XXXX       ",
"     XO$$$OX .oooO.oOOOooo.           ",
"    X%$$$$$%X .oOO.ooooooX.           ",
"    X%$$$$$%X ....XoooooX...          ",
"     X%$$$%X ..XXXXXXXXX.XX.          ",
"      X%%%X  .o.........Xoo.          ",
"       XXX   .ooX.    .Xoo.           ",
"              ...     ....            ",
"                                      ",
"                                      ",
"                                      "
};
