/* XPM */
static char *_69b0eec23df4b1fbbbd6737be2b4e3bzD1LnYTRu8dU86pF[] = {
/* columns rows colors chars-per-pixel */
"29 24 10 1 ",
"  c None",
". c #131313",
"X c #272727",
"o c gray24",
"O c #5D5D5D",
"+ c #B4202A",
"@ c #BB7547",
"# c #DBA463",
"$ c #B4B4B4",
"% c white",
/* pixels */
"            ...   ...        ",
"           .oo.   .oo.       ",
"          .oo.     .oo.      ",
"          .oo.     .oo.      ",
"          .ooo.....ooo.      ",
"         .Xoooooooooo.       ",
"   XXX   .Xoo..ooooo..       ",
"  X%%%X  .Xoo.........       ",
" X%$$$%X .Xoo..+....+.       ",
"X%$$$$$%X.Xoo..++..++.       ",
"X%$$$$$%X.Xoo...+..+..       ",
" XO$$$OX .Xoo.........       ",
"  XOOOXOX.XXoo.........XXXX  ",
" XO$$$O###..Xoooooooo.O.###X ",
" XO$$$O@@.oo.........OO.@@@X ",
"  XOOOXOX.ooooooOOOooo.XXXX  ",
" XO$$$OX .oXooooOOOooo.      ",
"X%$$$$$%X.oO.oooooooo.       ",
"X%$$$$$%X.OO.XooooooX.       ",
" X%$$$%X  ..XXXXXXXXX.       ",
"  X%%%X    ..........        ",
"   XXX      .ooXXoo.         ",
"             .oooo.          ",
"              ....           "
};
