/* XPM */
static char *ac001316529f4e6ad7badd78246cf5f3rozhbTCll3FjROo6[] = {
/* columns rows colors chars-per-pixel */
"32 32 8 1 ",
"  c black",
". c #1D120C",
"X c #2C1B12",
"o c #5C3A27",
"O c #764932",
"+ c #933A00",
"@ c #9D6242",
"# c #B97A57",
/* pixels */
"                                ",
" oXXoo++XooXXXXoooXoXoooXooXoXo ",
" X++o+X+XoooXooXXoXoXooXoXoXXoo ",
" ++X+XooXXoXoXXoXooXXoXooooXoXX ",
" +o++                       oXo ",
" o+X OO.OOO@O.OOOOO.OO@OO.O ooo ",
" XX+ OO.O#O@O.OO#O#.OO@OO.# oXo ",
" o+X OO.O#OOO.OO#O#.#OOOO.# Xoo ",
" XXX O#.O#OOO.OO@OO.#OO#O.@ oXo ",
" ooX O#.O@OO#.OO@OO.@OO#O.@ ooo ",
" oXo O#.O@OO#.OO@OO.#OO@O.@ oXX ",
" XXo O#.O@OO#.OO@OO.#OO@O.@ o+X ",
" oXX O#.O@O@#.OO@OO.@OO@O.@ X+o ",
" oXo O#.O@O@@.OO@OO.@OO@O.@ Xo+ ",
" Xoo O@.O@O@@.OO@OO.@OO@O.@ +++ ",
" XoX O@.O@O@#.OO@OO.@OO@O.@ ++X ",
" oXo O@.O@O@O.OO@OO.OOO@O.O X+o ",
" ooo O@.O@O@O.OO@O#.OOO@O.O Xoo ",
" ooX OO.#OO#O.OOOO#.OOO@O.O +oX ",
" XXo OO.#OO#O.OOOO#.O#O@O.O oXo ",
" XXo OO.#OO#O.O#OO#.O#O@O.O ooX ",
" ooo OO.#OO@O.O#OO#.O#O@O.O Xoo ",
" oXX #O.#OO#O.O#OO@.O#O@O.O ooo ",
" XoX #O.@OO#O.O@OO@.O@O@O.O oXo ",
" oXo #O.@OO#O.O@OO@.O@O@O.O Xoo ",
" ooX @O.@OOOO.O@OO@.OOO@O.O ooo ",
" Xoo #O.OOOOO.OOOO@.OOO@O.O ooo ",
" ooX                        oXo ",
" oXoXoXooo+ooX+oooXXooooXooXXXo ",
" oXXoo++XX+oXooXXXooXooXoXooXoo ",
" XoXXXXooooXoooo+oooXXooooooooo ",
"                                "
};
